<svg xmlns="http://www.w3.org/2000/svg" width="24" height="24" fill="#0A66C2" viewBox="0 0 24 24">
  <path d="M20.447 20.452H16.893V15.86c0-1.095-.02-2.507-1.527-2.507-1.529 0-1.763 1.195-1.763 2.428v4.67H10.05V9h3.41v1.561h.049c.476-.9 1.637-1.85 3.368-1.85 3.6 0 4.266 2.37 4.266 5.456v6.285zM5.337 7.433a1.99 1.99 0 1 1 0-3.979 1.99 1.99 0 0 1 0 3.979zM6.92 20.452H3.75V9h3.17v11.452zM22.225 0H1.771C.792 0 0 .774 0 1.729v20.542C0 23.226.792 24 1.771 24h20.451C23.2 24 24 23.226 24 22.271V1.729C24 .774 23.2 0 22.225 0z"/>
</svg>

